Coordinates
version=1
nRows=25
nColumns=23
inDegrees=yes

Units are S.I. units (second, meters, Newtons, ...)
If the header above contains a line with 'inDegrees', this indicates whether rotational values are in degrees (yes) or radians (no).

endheader
time	pelvis_tilt	pelvis_list	pelvis_rotation	pelvis_tx	pelvis_ty	pelvis_tz	hip_flexion_r	hip_adduction_r	hip_rotation_r	knee_angle_r	knee_angle_r_beta	ankle_angle_r	subtalar_angle_r	mtp_angle_r	hip_flexion_l	hip_adduction_l	hip_rotation_l	knee_angle_l	knee_angle_l_beta	ankle_angle_l	subtalar_angle_l	mtp_angle_l
     22.50000000	     -3.84075123	      2.22523456	      1.13837295	      2.13343809	      1.02412985	      1.02548897	     28.96150194	     -4.08074681	     -0.47944149	     76.08907955	      1.32800496	      4.63965297	    -19.20282215	      0.00000000	      7.33981526	      0.88204761	    -12.08236794	     35.75438182	      0.62403168	     27.31682997	      7.12807685	      0.00000000
     22.50666667	     -2.31950428	      0.44790132	      1.53500695	      2.13542247	      1.03167225	      1.02521694	     27.18554030	     -2.45374599	     -2.13583080	     73.00801307	      1.27423021	      5.06048489	    -19.04574997	      0.00000000	      3.86855169	     -1.27891933	    -12.68402331	     34.14177044	      0.59588631	     26.27087903	      9.02917168	      0.00000000
     22.51333333	     -2.13187434	     -0.52965312	      1.76651627	      2.13658127	      1.03694264	      1.02501288	     27.14247968	     -1.60359360	     -3.21415317	     70.28273606	      1.22666515	      5.50347337	    -18.76831560	      0.00000000	      1.98438428	     -2.36334017	    -12.99374001	     32.61755851	      0.56928379	     24.81408479	      9.80919090	      0.00000000
     22.52000000	     -2.10559853	     -1.40349149	      1.93905762	      2.13773709	      1.04199297	      1.02487214	     27.21911266	     -0.85809767	     -4.25313796	     67.42694869	      1.17682226	      5.90442225	    -18.44109203	      0.00000000	      0.34195385	     -3.31485878	    -13.34171119	     31.14915379	      0.54365529	     22.97599525	     10.22501702	      0.00000000
     22.52666667	     -2.03160259	     -2.27847577	      2.23673939	      2.13906366	      1.04714386	      1.02449554	     27.09646819	     -0.20463134	     -5.48903384	     64.33803778	      1.12291059	      6.22684149	    -18.04381651	      0.00000000	     -1.26869328	     -4.27722993	    -13.62855062	     29.76026747	      0.51941465	     20.91866419	     10.67703226	      0.00000000
     22.53333333	     -2.12883023	     -2.95408901	      2.43860216	      2.14030405	      1.05193900	      1.02427664	     27.12894846	      0.28308233	     -6.59691438	     61.19539742	      1.06806117	      6.55521036	    -17.50428733	      0.00000000	     -2.63836289	     -4.98101224	    -13.87836007	     28.41408275	      0.49591930	     18.58043178	     10.68030071	      0.00000000
     22.54000000	     -2.26848487	     -3.56183619	      2.64015358	      2.14155827	      1.05657876	      1.02411096	     27.11955213	      0.70486787	     -7.72919312	     57.92189133	      1.01092771	      6.87591975	    -16.77969487	      0.00000000	     -3.87328291	     -5.62311992	    -14.12974876	     27.18083028	      0.47439498	     16.08148375	     10.57379773	      0.00000000
     22.54666667	     -3.18182113	     -3.75535595	      2.51322783	      2.14228172	      1.05972433	      1.02464315	     28.07903297	      0.85303780	     -8.37997034	     54.87914313	      0.95782174	      7.22173135	    -15.97691161	      0.00000000	     -4.09078926	     -5.86930066	    -14.78713293	     26.37560709	      0.46034119	     13.56297898	     10.59838131	      0.00000000
     22.55333333	     -2.84386431	     -4.34105080	      2.79615150	      2.14386126	      1.06489792	      1.02439098	     27.27368880	      1.26426588	     -9.68269585	     51.22414836	      0.89403005	      7.58681036	    -14.55683066	      0.00000000	     -5.81522256	     -6.41107155	    -14.64860256	     25.02103672	      0.43669947	     10.73699577	      9.74939718	      0.00000000
     22.56000000	     -2.87856699	     -4.77828404	      3.02443935	      2.14515614	      1.06919931	      1.02449667	     26.87950254	      1.58140174	    -10.88970570	     47.61268513	      0.83099812	      7.87796874	    -12.95431434	      0.00000000	     -6.90801695	     -6.93424610	    -14.87041299	     24.12683257	      0.42109267	      7.96681720	      9.41192855	      0.00000000
     22.56666667	     -3.78071246	     -4.76678424	      2.76927572	      2.14580520	      1.07177870	      1.02566239	     27.60936609	      1.72108602	    -11.30390102	     44.34049573	      0.77388764	      8.14320877	    -11.39639448	      0.00000000	     -6.89940722	     -7.00964049	    -15.60679811	     23.70793274	      0.41378149	      5.31677528	      9.31598608	      0.00000000
     22.57333333	     -3.16245985	     -5.24132439	      3.20931651	      2.14754497	      1.07653249	      1.02552138	     26.25129090	      2.06343367	    -12.85920752	     40.48219423	      0.70654758	      8.55594499	     -8.63627790	      0.00000000	     -8.63714863	     -7.57066736	    -15.46241399	     22.78399100	      0.39765566	      2.49477777	      8.49823534	      0.00000000
     22.58000000	     -3.30144458	     -5.38531991	      3.26030511	      2.14872094	      1.07967953	      1.02635825	     25.88380413	      2.32173602	    -13.73131997	     36.96451993	      0.64515258	      8.92329495	     -5.92061513	      0.00000000	     -9.34525088	     -7.87356873	    -15.90263169	     22.43254177	      0.39152171	     -0.06556068	      8.15939974	      0.00000000
     22.58666667	     -3.38756221	     -5.49902587	      3.27899630	      2.14989476	      1.08251540	      1.02741280	     25.43234388	      2.64967821	    -14.43528860	     33.49435137	      0.58458671	      9.25313388	     -3.04083216	      0.00000000	    -10.00947704	     -8.19090354	    -16.43072889	     22.29116621	      0.38905424	     -2.51051820	      7.81044399	      0.00000000
     22.59333333	     -3.43411545	     -5.57611945	      3.28911989	      2.15104079	      1.08498386	      1.02863281	     24.92393666	      3.02714017	    -14.94266109	     30.11030434	      0.52552395	      9.52524474	     -0.11561925	      0.00000000	    -10.60058116	     -8.52908589	    -17.04840837	     22.39046779	      0.39078738	     -4.77466246	      7.50017599	      0.00000000
     22.60000000	     -4.13475252	     -5.33888895	      2.94489413	      2.15166070	      1.08605018	      1.03061725	     25.28721210	      3.30234794	    -14.52061487	     27.12478241	      0.47341676	      9.72434801	      2.13595588	      0.00000000	    -10.34402767	     -8.53448461	    -17.94007270	     22.89404908	      0.39957654	     -6.80693327	      7.09611681	      0.00000000
     22.60666667	     -3.53519028	     -5.69687993	      3.22313103	      2.15316576	      1.08852229	      1.03152953	     23.91331177	      4.00179802	    -15.05637424	     23.72704934	      0.41411513	      9.96670916	      5.21700772	      0.00000000	    -11.40664773	     -9.34379405	    -18.58688108	     23.40074021	      0.40841996	     -8.67419031	      6.73142831	      0.00000000
     22.61333333	     -4.00886417	     -5.50977955	      2.96025136	      2.15383843	      1.08892523	      1.03341317	     23.99542814	      4.32834753	    -14.40410953	     21.06211831	      0.36760331	     10.18827380	      7.32815746	      0.00000000	    -11.17843414	     -9.50397939	    -19.45972720	     24.34940580	      0.42497730	    -10.33722507	      6.01818601	      0.00000000
     22.62000000	     -3.45345585	     -5.91105329	      3.24206959	      2.15522567	      1.09039071	      1.03440703	     22.60281952	      5.20874360	    -14.12075159	     17.84562552	      0.31146492	     10.11998982	      9.05690298	      0.00000000	    -11.96043457	    -10.47345775	    -20.19640126	     25.35585292	      0.44254312	    -11.68998614	      5.41445729	      0.00000000
     22.62666667	     -3.25074628	     -6.11485300	      3.29685135	      2.15625476	      1.09079429	      1.03570884	     21.68921943	      5.93410299	    -13.22472381	     15.04912177	      0.26265672	     10.02101850	     10.04173730	      0.00000000	    -12.28606759	    -11.20430835	    -20.98407610	     26.59960818	      0.46425074	    -12.86495860	      4.40479050	      0.00000000
     22.63333333	     -2.99999233	     -6.33572550	      3.40586652	      2.15729682	      1.09075521	      1.03682269	     20.71211467	      6.61067864	    -12.24251180	     12.49468517	      0.21807340	      9.87952694	     10.51453869	      0.00000000	    -12.58394677	    -11.96820046	    -21.62481174	     27.98426454	      0.48841756	    -13.78325898	      3.14938160	      0.00000000
     22.64000000	     -3.11766672	     -6.36657422	      3.34776853	      2.15796667	      1.08956131	      1.03810280	     20.48608831	      6.90304536	    -11.78076954	     10.98082710	      0.19165159	     10.10512326	     11.39666469	      0.00000000	    -12.38082338	    -12.51454261	    -22.22398220	     29.64348368	      0.51737639	    -14.38287897	      1.62709888	      0.00000000
     22.64666667	     -2.34762703	     -6.80609407	      3.70779998	      2.15918616	      1.08927179	      1.03863670	     18.81537653	      7.72630270	    -10.80596860	      8.63651366	      0.15073560	      9.59898088	     10.54708496	      0.00000000	    -13.11945326	    -13.53247132	    -22.42669192	     31.12706692	      0.54326980	    -14.83204963	     -0.13559726	      0.00000000
     22.65333333	     -2.00413742	     -7.03941276	      3.82644831	      2.15993170	      1.08783248	      1.03948125	     18.05204542	      8.17049664	    -10.43121447	      7.51583345	      0.13117604	      9.45901468	     10.12275902	      0.00000000	    -13.30335979	    -14.28429553	    -22.58707321	     32.86282661	      0.57356453	    -14.95719661	     -2.01261829	      0.00000000
     22.66000000	     -1.71100717	     -7.24271991	      3.78454565	      2.16039119	      1.08580637	      1.04055253	     17.67412504	      8.49178785	    -10.64442934	      7.34044397	      0.12811492	      9.57907322	     10.01980411	      0.00000000	    -13.38827215	    -14.99377342	    -22.80367959	     34.75490415	      0.60658751	    -14.75269304	     -3.72483792	      0.00000000
